<?xml version="1.0" encoding="utf-8"?>
<!-- Generator: Adobe Illustrator 16.0.0, SVG Export Plug-In . SVG Version: 6.00 Build 0)  -->
<!DOCTYPE svg PUBLIC "-//W3C//DTD SVG 1.1//EN" "http://www.w3.org/Graphics/SVG/1.1/DTD/svg11.dtd">
<svg version="1.1" id="Capa_1" xmlns="http://www.w3.org/2000/svg" xmlns:xlink="http://www.w3.org/1999/xlink" x="0px" y="0px"
	 width="21.392px" height="16.396px" viewBox="0 0 21.392 16.396" enable-background="new 0 0 21.392 16.396" xml:space="preserve">
<g>
	<path fill="#AFADAD" d="M21.007,2.263l-1.879-1.877C18.871,0.129,18.558,0,18.191,0c-0.369,0-0.682,0.129-0.939,0.386L8.198,9.454
		L4.141,5.382C3.883,5.125,3.569,4.996,3.202,4.996c-0.368,0-0.682,0.129-0.939,0.386L0.386,7.259C0.129,7.517,0,7.83,0,8.198
		C0,8.565,0.129,8.88,0.386,9.137l4.996,4.996L7.26,16.01c0.257,0.258,0.57,0.386,0.938,0.386c0.367,0,0.681-0.128,0.938-0.386
		l1.876-1.877l9.994-9.992c0.256-0.258,0.385-0.571,0.385-0.938C21.392,2.834,21.263,2.521,21.007,2.263L21.007,2.263z
		 M21.007,2.263"/>
</g>
</svg>
