<?xml version="1.0" encoding="utf-8"?>
<!-- Generator: Adobe Illustrator 16.0.0, SVG Export Plug-In . SVG Version: 6.00 Build 0)  -->
<!DOCTYPE svg PUBLIC "-//W3C//DTD SVG 1.1//EN" "http://www.w3.org/Graphics/SVG/1.1/DTD/svg11.dtd">
<svg version="1.1" id="Capa_1" xmlns="http://www.w3.org/2000/svg" xmlns:xlink="http://www.w3.org/1999/xlink" x="0px" y="0px"
	 width="27.744px" height="18.259px" viewBox="0 0 27.744 18.259" enable-background="new 0 0 27.744 18.259" xml:space="preserve">
<g>
	<path fill="#99989D" d="M7.307,16.265c-3.934,0-7.135-3.201-7.135-7.135c0-3.936,3.201-7.137,7.135-7.137
		c3.936,0,7.136,3.201,7.136,7.137C14.443,13.064,11.242,16.265,7.307,16.265 M7.307,3.309c-3.209,0-5.82,2.61-5.82,5.821
		c0,3.209,2.611,5.82,5.82,5.82c3.211,0,5.822-2.611,5.822-5.82C13.128,5.919,10.518,3.309,7.307,3.309"/>
	<path fill="#99989D" d="M26.914,9.449H14.209c-0.362,0-0.657-0.294-0.657-0.656c0-0.363,0.295-0.658,0.657-0.658h12.704
		c0.363,0,0.658,0.295,0.658,0.658C27.572,9.155,27.277,9.449,26.914,9.449"/>
	<path fill="#99989D" d="M26.445,12.734c-0.363,0-0.658-0.294-0.658-0.656V9.011c0-0.363,0.295-0.658,0.658-0.658
		c0.361,0,0.654,0.295,0.654,0.658v3.066C27.099,12.44,26.806,12.734,26.445,12.734"/>
</g>
</svg>
